HIERARCHY
ROOT Hips
{
 OFFSET 0.000000 0.000000 0.000000
 CHANNELS 6 Xposition Yposition Zposition Yrotation Xrotation Zrotation
 JOINT Chest
 {
  OFFSET 0.000000 9.585900 0.002600
  CHANNELS 3 Yrotation Xrotation Zrotation
  JOINT Chest2
  {
   OFFSET 0.000000 9.601200 -0.005300
   CHANNELS 3 Yrotation Xrotation Zrotation
   JOINT Chest3
   {
    OFFSET 0.000000 9.561800 0.000000
    CHANNELS 3 Yrotation Xrotation Zrotation
    JOINT Chest4
    {
     OFFSET 0.000000 9.552100 0.000000
     CHANNELS 3 Yrotation Xrotation Zrotation
     JOINT Neck
     {
      OFFSET 0.000000 14.453000 0.000000
      CHANNELS 3 Yrotation Xrotation Zrotation
      JOINT Head
      {
       OFFSET 0.000000 8.936500 -0.011300
       CHANNELS 3 Yrotation Xrotation Zrotation
       End Site
       {
        OFFSET 0.000000 17.073600 -0.006000
       }
      }
     }
     JOINT RightCollar
     {
      OFFSET -2.921100 9.558500 0.000000
      CHANNELS 3 Yrotation Xrotation Zrotation
      JOINT RightShoulder
      {
       OFFSET -13.519700 0.000000 0.000000
       CHANNELS 3 Yrotation Xrotation Zrotation
       JOINT RightElbow
       {
        OFFSET 0.000000 -29.696600 0.000000
        CHANNELS 3 Yrotation Xrotation Zrotation
        JOINT RightWrist
        {
         OFFSET 0.000000 -24.004700 0.000000
         CHANNELS 3 Yrotation Xrotation Zrotation
         End Site
         {
          OFFSET 0.000000 -17.728500 0.000000
         }
        }
       }
      }
     }
     JOINT LeftCollar
     {
      OFFSET 2.921100 9.558500 0.000000
      CHANNELS 3 Yrotation Xrotation Zrotation
      JOINT LeftShoulder
      {
       OFFSET 13.519700 0.000000 0.000000
       CHANNELS 3 Yrotation Xrotation Zrotation
       JOINT LeftElbow
       {
        OFFSET 0.000000 -29.696600 0.000000
        CHANNELS 3 Yrotation Xrotation Zrotation
        JOINT LeftWrist
        {
         OFFSET 0.000000 -24.004700 0.000000
         CHANNELS 3 Yrotation Xrotation Zrotation
         End Site
         {
          OFFSET 0.000000 -17.728500 0.000000
         }
        }
       }
      }
     }
    }
   }
  }
 }
 JOINT RightHip
 {
  OFFSET -7.771700 -0.012900 -0.001300
  CHANNELS 3 Yrotation Xrotation Zrotation
  JOINT RightKnee
  {
   OFFSET 0.000000 -40.869800 0.001200
   CHANNELS 3 Yrotation Xrotation Zrotation
   JOINT RightAnkle
   {
    OFFSET 0.000000 -39.717900 0.002100
    CHANNELS 3 Yrotation Xrotation Zrotation
    JOINT RightToe
    {
     OFFSET 0.000000 -4.965400 11.033500
     CHANNELS 3 Yrotation Xrotation Zrotation
     End Site
     {
      OFFSET 0.000000 -1.423100 5.872300
     }
    }
   }
  }
 }
 JOINT LeftHip
 {
  OFFSET 7.771700 -0.012900 -0.001300
  CHANNELS 3 Yrotation Xrotation Zrotation
  JOINT LeftKnee
  {
   OFFSET 0.000000 -40.869800 0.001200
   CHANNELS 3 Yrotation Xrotation Zrotation
   JOINT LeftAnkle
   {
    OFFSET 0.000000 -39.717900 0.002100
    CHANNELS 3 Yrotation Xrotation Zrotation
    JOINT LeftToe
    {
     OFFSET 0.000000 -4.965400 11.033500
     CHANNELS 3 Yrotation Xrotation Zrotation
     End Site
     {
      OFFSET 0.000000 -1.423100 5.872300
     }
    }
   }
  }
 }
}
MOTION
Frames: 16
Frame Time: 0.008333
-2.683841 49.926849 37.410827 173.041770 -35.563936 -7.331045 6.010435 20.384962 7.488477 0.672084 2.800669 0.752420 1.107522 4.547005 1.231341 4.904922 17.298008 5.337222 -1.874690 15.537360 0.493957 -3.665485 -6.853063 1.618432 0.903159 -2.309451 -3.499198 5.144222 -4.789860 0.232903 90.113184 -77.785506 -102.110351 -0.575592 -4.239797 -1.635272 -10.530969 -1.138602 -1.623230 2.354508 -5.550024 -0.338052 -115.896601 -70.952506 112.134655 12.632715 -2.015205 1.930780 1.066552 -44.846741 9.027266 -94.177603 83.447777 -81.699921 0.448849 -10.911609 -4.371855 -0.153523 1.014272 -0.113808 -11.716454 -49.002556 17.029800 -164.247358 84.835380 -171.507435 -0.390758 -12.229564 5.726359 -0.044697 -0.191576 0.030632
-2.680266 49.934369 37.411612 173.049907 -35.570339 -7.348347 6.016305 20.397111 7.514740 0.667663 2.796478 0.745168 1.110774 4.555559 1.234841 4.907510 17.308553 5.341279 -1.866753 15.548384 0.522377 -3.674937 -6.883850 1.622716 0.923978 -2.353412 -3.527346 5.123904 -4.774570 0.254883 90.159167 -77.784978 -102.172807 -0.521070 -4.024839 -1.527396 -10.526909 -1.143211 -1.608984 2.396714 -5.579908 -0.359242 -115.913517 -70.806804 112.209327 12.517399 -1.686123 1.368010 1.022624 -44.842709 9.071234 -94.220443 83.444342 -81.754863 0.430241 -10.926964 -4.373259 -0.137102 1.018946 -0.096061 -11.744819 -48.997088 17.064946 -164.173057 84.827183 -171.446596 -0.394389 -12.230929 5.724365 -0.044395 -0.193022 0.029315
-2.675169 49.941934 37.412349 173.060348 -35.577283 -7.367681 6.019986 20.409457 7.537029 0.668099 2.799455 0.745578 1.106600 4.549629 1.230810 4.916553 17.322319 5.352068 -1.865786 15.541999 0.530159 -3.683473 -6.894553 1.642380 0.920598 -2.379418 -3.544231 5.085311 -4.762941 0.278475 90.475392 -77.830425 -102.464340 -0.414472 -3.729254 -1.396679 -10.523948 -1.144386 -1.593456 2.506223 -5.633455 -0.389191 -115.934061 -70.657537 112.226140 12.404705 -1.279147 0.699334 0.986192 -44.839010 9.116681 -94.262716 83.436291 -81.803832 0.403075 -10.943180 -4.380481 -0.111353 1.027477 -0.081733 -11.777122 -48.989868 17.106291 -164.112927 84.819399 -171.404368 -0.400983 -12.231500 5.728347 -0.045772 -0.195063 0.025749
-2.670943 49.948743 37.413503 173.070634 -35.578590 -7.375861 6.019422 20.417895 7.551156 0.668483 2.801284 0.746263 1.107254 4.552487 1.231833 4.914488 17.323939 5.350815 -1.859897 15.544091 0.540408 -3.686764 -6.911117 1.655379 0.917982 -2.401577 -3.560276 5.056343 -4.743403 0.300934 90.722630 -77.882523 -102.686305 -0.327850 -3.392519 -1.258899 -10.516169 -1.143740 -1.578112 2.566635 -5.668965 -0.418344 -116.005023 -70.516335 112.334657 12.295818 -0.827608 -0.015276 0.968166 -44.842742 9.138441 -94.320958 83.445812 -81.859260 0.358842 -10.962095 -4.398799 -0.084655 1.038357 -0.063687 -11.797259 -48.989780 17.130601 -164.084370 84.815103 -171.393667 -0.411282 -12.229659 5.738435 -0.044368 -0.197232 0.018113
-2.666076 49.955786 37.414474 173.082118 -35.581312 -7.385714 6.016367 20.429526 7.566228 0.673103 2.820849 0.759221 1.106032 4.548018 1.226791 4.903458 17.306302 5.334237 -1.854840 15.549124 0.547266 -3.657594 -6.892198 1.693488 0.926612 -2.429204 -3.587373 5.022001 -4.707114 0.339428 91.008727 -77.953630 -102.941658 -0.246979 -2.993976 -1.115235 -10.500304 -1.137124 -1.559151 2.629247 -5.702415 -0.444710 -116.178142 -70.430814 112.520268 12.188605 -0.390962 -0.705811 0.954569 -44.844397 9.148731 -94.422658 83.444570 -81.939556 0.325392 -10.978399 -4.435798 -0.047229 1.043498 -0.039582 -11.814196 -48.988292 17.150575 -164.079061 84.811591 -171.400688 -0.421411 -12.229538 5.746273 -0.043275 -0.197965 0.010706
-2.662322 49.962450 37.416018 173.083942 -35.579261 -7.384907 6.023857 20.455304 7.589080 0.670086 2.812297 0.750113 1.104174 4.538615 1.220571 4.908375 17.321358 5.342573 -1.843306 15.564108 0.561382 -3.636266 -6.885907 1.709333 0.941958 -2.506935 -3.679587 4.977445 -4.645285 0.426428 91.318442 -78.041128 -103.215306 -0.168838 -2.533538 -0.969793 -10.491399 -1.156926 -1.544001 2.696179 -5.734071 -0.466490 -116.425019 -70.404876 112.757254 12.110612 -0.013553 -1.326030 0.954558 -44.851449 9.146754 -94.509449 83.428874 -82.012983 0.335817 -10.990148 -4.459459 -0.040387 1.048185 -0.024848 -11.815953 -48.993076 17.159022 -164.126543 84.810731 -171.456499 -0.429005 -12.229003 5.738309 -0.049892 -0.198464 0.016631
-2.658964 49.969798 37.417365 173.086750 -35.578650 -7.386957 6.028061 20.477073 7.608119 0.668260 2.811001 0.747458 1.107421 4.561161 1.230157 4.897272 17.344928 5.343113 -1.826977 15.543165 0.561780 -3.611583 -6.891652 1.712732 0.950801 -2.602850 -3.756264 4.956751 -4.608070 0.475186 91.629986 -78.138818 -103.487960 -0.082584 -2.008907 -0.816449 -10.477560 -1.222920 -1.533930 2.749498 -5.756655 -0.486106 -116.568187 -70.412989 112.869297 12.105241 0.243245 -1.829799 0.951345 -44.854775 9.145516 -94.585695 83.404093 -82.077849 0.361024 -10.999269 -4.469000 -0.040229 1.052275 -0.025078 -11.819155 -48.996133 17.166917 -164.187816 84.810865 -171.522884 -0.442172 -12.226179 5.741225 -0.051094 -0.200243 0.010819
-2.658019 49.977129 37.419316 173.100610 -35.570187 -7.388791 6.017818 20.489408 7.616086 0.666987 2.814042 0.747622 1.105708 4.546244 1.219624 4.890022 17.364295 5.349508 -1.808670 15.548304 0.568234 -3.578751 -6.900732 1.710877 0.956821 -2.662962 -3.820241 4.951717 -4.574639 0.527891 91.928385 -78.234149 -103.756493 0.018542 -1.418977 -0.643723 -10.465295 -1.249059 -1.513991 2.768347 -5.763213 -0.511171 -116.701216 -70.415475 113.006248 12.168870 0.418780 -2.239985 0.944940 -44.863243 9.132472 -94.669046 83.369518 -82.153466 0.402285 -11.008387 -4.473272 -0.048697 1.057629 -0.028150 -11.821768 -49.008296 17.159471 -164.211699 84.812571 -171.547343 -0.450077 -12.219454 5.742364 -0.047576 -0.201940 0.005823
-2.660046 49.984808 37.421367 173.101647 -35.559586 -7.373789 6.015285 20.499147 7.612741 0.664311 2.806216 0.741943 1.100923 4.560381 1.226466 4.886819 17.348959 5.336064 -1.793299 15.561127 0.576542 -3.549415 -6.929707 1.700461 0.957328 -2.689948 -3.850645 4.942437 -4.553452 0.549089 92.266358 -78.325809 -104.065802 0.141158 -0.772250 -0.441644 -10.464162 -1.258270 -1.485521 2.843828 -5.790301 -0.517213 -116.979127 -70.457660 113.235341 12.272399 0.538443 -2.556522 0.950532 -44.872969 9.095274 -94.747930 83.345116 -82.228850 0.476582 -11.014978 -4.469764 -0.107902 1.065686 -0.042075 -11.794175 -49.023382 17.137186 -164.327571 84.821285 -171.668178 -0.471766 -12.213455 5.748270 -0.045661 -0.203147 0.006482
-2.659785 49.992516 37.425954 173.093605 -35.536412 -7.376894 6.024460 20.492743 7.630262 0.665858 2.799660 0.738219 1.101959 4.602798 1.245283 4.873743 17.335923 5.320795 -1.780996 15.530475 0.565479 -3.532309 -6.961252 1.689570 0.954802 -2.783114 -3.934808 4.937326 -4.499088 0.605845 92.542229 -78.398013 -104.322847 0.268989 -0.098812 -0.192172 -10.465882 -1.302349 -1.462097 2.940361 -5.836285 -0.441224 -117.405398 -70.572085 113.531604 12.415070 0.584206 -2.717810 0.939316 -44.895164 9.084358 -94.801754 83.348693 -82.279380 0.558167 -11.040731 -4.448766 -0.172328 1.093972 -0.081392 -11.771992 -49.050837 17.149388 -164.350167 84.823392 -171.687003 -0.493205 -12.212709 5.759174 -0.045115 -0.199608 0.009313
-2.664783 50.002038 37.427554 173.094197 -35.528071 -7.357507 6.015702 20.495605 7.613510 0.662533 2.832176 0.753680 1.101670 4.586449 1.235057 4.869784 17.377199 5.332800 -1.767055 15.462174 0.537589 -3.534810 -6.968583 1.689569 0.954423 -2.901249 -4.029432 4.935055 -4.446149 0.661493 92.659490 -78.432233 -104.427497 0.395857 0.574848 0.122379 -10.466928 -1.376078 -1.444370 2.969028 -5.844180 -0.393708 -117.675886 -70.628940 113.715983 12.572260 0.518085 -2.778506 0.947711 -44.899787 9.039084 -94.827469 83.351576 -82.303118 0.595805 -11.043175 -4.427755 -0.195860 1.097125 -0.112850 -11.741707 -49.060106 17.115775 -164.533530 84.837541 -171.875857 -0.514364 -12.208031 5.762184 -0.046327 -0.198680 0.016597
-2.671042 50.012011 37.429159 173.090896 -35.519653 -7.332222 6.007780 20.498692 7.592978 0.657749 2.842431 0.759736 1.101371 4.590228 1.235365 4.866913 17.384357 5.331876 -1.758470 15.429646 0.519738 -3.463563 -7.103782 1.612231 0.949175 -2.967486 -4.099347 4.943230 -4.408750 0.703525 93.010305 -78.501590 -104.804993 0.644684 1.305319 0.549552 -10.466686 -1.409719 -1.438369 2.968381 -5.850087 -0.314303 -117.833737 -70.703193 113.851017 12.670352 0.378493 -2.822707 0.949321 -44.899679 8.995685 -94.830348 83.352188 -82.317891 0.660216 -11.055375 -4.411256 -0.261553 1.114535 -0.135982 -11.702416 -49.068910 17.074726 -164.682519 84.851715 -172.032127 -0.525722 -12.202817 5.764182 -0.047846 -0.199331 0.019798
-2.675617 50.022237 37.431459 173.079020 -35.510546 -7.314298 6.005113 20.508512 7.587078 0.657447 2.841082 0.763434 1.100624 4.593489 1.235374 4.867204 17.380018 5.322723 -1.750433 15.410868 0.508293 -3.403576 -7.209619 1.534505 0.946457 -2.998499 -4.135608 4.936604 -4.385950 0.723331 93.432940 -78.539727 -105.245854 0.977163 2.067730 1.081770 -10.471415 -1.426701 -1.426392 2.951134 -5.851104 -0.223804 -118.040414 -70.678556 113.976930 12.755866 0.254855 -2.752696 0.953539 -44.906831 8.984728 -94.832744 83.336549 -82.326352 0.673747 -11.063541 -4.412781 -0.266229 1.125814 -0.132579 -11.654990 -49.079765 17.048518 -164.679055 84.862324 -172.028715 -0.539961 -12.198224 5.780837 -0.042399 -0.201123 0.006252
-2.679070 50.032327 37.434151 173.064738 -35.501142 -7.302245 6.000186 20.523289 7.602163 0.661000 2.832390 0.751679 1.100252 4.596259 1.235285 4.867527 17.376845 5.313350 -1.721261 15.366934 0.473060 -3.372391 -7.262236 1.481729 0.943796 -3.027842 -4.173086 4.920141 -4.359459 0.745180 94.072183 -78.479021 -105.987909 1.345693 2.894079 1.845741 -10.503413 -1.450965 -1.362257 2.959740 -5.836529 -0.176719 -118.202068 -70.585345 114.055756 12.802984 0.130737 -2.671407 0.959751 -44.916584 8.984299 -94.800798 83.330310 -82.299778 0.672837 -11.064085 -4.409326 -0.264124 1.131039 -0.130790 -11.632368 -49.087530 17.045164 -164.707373 84.870814 -172.065722 -0.550853 -12.193618 5.789683 -0.044373 -0.202938 0.004772
-2.682692 50.042146 37.436370 173.050391 -35.495312 -7.288374 5.996825 20.530670 7.604456 0.667141 2.827036 0.745062 1.095369 4.604591 1.243243 4.864426 17.383822 5.308393 -1.700485 15.330044 0.439929 -3.328230 -7.326606 1.406750 0.942652 -3.110860 -4.286099 4.839761 -4.255405 0.834982 94.745195 -78.368363 -106.687807 1.748494 3.676399 2.724958 -10.514438 -1.479159 -1.327113 2.948126 -5.824909 -0.097951 -118.305561 -70.482748 114.095361 12.782972 -0.008958 -2.627374 0.968041 -44.922876 8.983961 -94.777311 83.326741 -82.283082 0.665468 -11.069274 -4.403282 -0.256988 1.138078 -0.132298 -11.583200 -49.095425 17.026184 -164.615521 84.877902 -171.972003 -0.558850 -12.191415 5.798611 -0.042428 -0.202669 0.009196
-2.686012 50.050916 37.438953 173.036307 -35.487348 -7.276234 6.002816 20.525371 7.601892 0.664442 2.830896 0.748840 1.090127 4.611615 1.251380 4.859570 17.402282 5.328540 -1.683678 15.281981 0.377414 -3.283919 -7.386876 1.324848 0.949233 -3.184791 -4.398203 4.780130 -4.179314 0.891540 95.220943 -78.242663 -107.192035 2.190406 4.391542 3.680283 -10.527884 -1.520362 -1.298718 2.947025 -5.811760 -0.031507 -118.396068 -70.362317 114.114696 12.732656 -0.142630 -2.601829 0.953438 -44.934539 9.010226 -94.759384 83.326111 -82.288939 0.630416 -11.067443 -4.408025 -0.234794 1.137406 -0.117812 -11.556296 -49.104156 17.018308 -164.588003 84.884315 -171.949380 -0.563378 -12.187920 5.808815 -0.041982 -0.203833 0.006185
